<?xml version="1.0" standalone="no"?>
<!DOCTYPE svg PUBLIC "-//W3C//DTD SVG 20010904//EN"
 "http://www.w3.org/TR/2001/REC-SVG-20010904/DTD/svg10.dtd">
<svg version="1.0" xmlns="http://www.w3.org/2000/svg"
 width="260.000000pt" height="260.000000pt" viewBox="0 0 260.000000 260.000000"
 preserveAspectRatio="xMidYMid meet">
<metadata>
Created by potrace 1.11, written by Peter Selinger 2001-2013
</metadata>
<g transform="translate(0.000000,260.000000) scale(0.100000,-0.100000)"
fill="#000000" stroke="none">
<path d="M1272 1333 l-1021 -1028 32 -33 32 -34 863 869 c475 477 935 940
1023 1028 l159 161 -33 32 -34 33 -1021 -1028z"/>
<path d="M615 2342 c-296 -58 -443 -368 -300 -631 51 -94 131 -158 245 -197
88 -30 238 -28 321 5 206 80 315 272 275 485 -17 88 -52 153 -115 216 -62 61
-116 91 -206 115 -54 14 -167 18 -220 7z m183 -198 c143 -59 186 -255 84 -383
-134 -166 -394 -60 -394 160 0 168 162 285 310 223z"/>
<path d="M1640 671 l0 -421 110 0 110 0 0 118 0 117 114 1 c193 3 284 45 341
159 27 54 30 69 29 150 0 132 -43 209 -141 255 -71 33 -71 33 -325 37 l-238 4
0 -420z m437 225 c44 -22 66 -68 60 -121 -9 -87 -57 -115 -196 -115 l-81 0 0
128 0 128 93 -1 c64 -2 102 -7 124 -19z"/>
</g>
</svg>
